<svg width="40" height="40" viewBox="0 0 40 40" fill="none" xmlns="http://www.w3.org/2000/svg">
<circle cx="20" cy="20" r="19.5" fill="black" stroke="white"/>
<path d="M18.55 11C14.698 11.007 12.68 11.102 11.391 12.39C10 13.783 10 16.022 10 20.5C10 24.978 10 27.217 11.391 28.609C12.783 30 15.021 30 19.501 30C23.979 30 26.218 30 27.609 28.609C28.899 27.319 28.993 25.302 29 21.449" stroke="white" stroke-width="1.5" stroke-linecap="round" stroke-linejoin="round"/>
<path d="M19.056 21C18.332 11.866 24.802 9.276 29.98 10.164C30.189 13.191 28.707 14.324 25.887 14.848C26.432 15.418 27.394 16.134 27.29 17.028C27.216 17.666 26.784 17.978 25.918 18.604C24.022 19.974 21.826 20.838 19.056 21Z" stroke="white" stroke-width="1.5" stroke-linecap="round" stroke-linejoin="round"/>
<path d="M17 25C19 19.5 20.96 17.636 23 16" stroke="white" stroke-width="1.5" stroke-linecap="round" stroke-linejoin="round"/>
</svg>
